<svg id="visual" viewBox="0 0 960 540" width="960" height="540" xmlns="http://www.w3.org/2000/svg" xmlns:xlink="http://www.w3.org/1999/xlink" version="1.1"><rect x="0" y="0" width="960" height="540" fill="#001220"></rect><defs><linearGradient id="grad1_0" x1="43.8%" y1="0%" x2="100%" y2="100%"><stop offset="14.444444444444446%" stop-color="#fbae3c" stop-opacity="1"></stop><stop offset="85.55555555555554%" stop-color="#fbae3c" stop-opacity="1"></stop></linearGradient></defs><defs><linearGradient id="grad1_1" x1="43.8%" y1="0%" x2="100%" y2="100%"><stop offset="14.444444444444446%" stop-color="#fbae3c" stop-opacity="1"></stop><stop offset="85.55555555555554%" stop-color="#e1685e" stop-opacity="1"></stop></linearGradient></defs><defs><linearGradient id="grad1_2" x1="43.8%" y1="0%" x2="100%" y2="100%"><stop offset="14.444444444444446%" stop-color="#96446e" stop-opacity="1"></stop><stop offset="85.55555555555554%" stop-color="#e1685e" stop-opacity="1"></stop></linearGradient></defs><defs><linearGradient id="grad1_3" x1="43.8%" y1="0%" x2="100%" y2="100%"><stop offset="14.444444444444446%" stop-color="#96446e" stop-opacity="1"></stop><stop offset="85.55555555555554%" stop-color="#3d3056" stop-opacity="1"></stop></linearGradient></defs><defs><linearGradient id="grad1_4" x1="43.8%" y1="0%" x2="100%" y2="100%"><stop offset="14.444444444444446%" stop-color="#001220" stop-opacity="1"></stop><stop offset="85.55555555555554%" stop-color="#3d3056" stop-opacity="1"></stop></linearGradient></defs><defs><linearGradient id="grad2_0" x1="0%" y1="0%" x2="56.3%" y2="100%"><stop offset="14.444444444444446%" stop-color="#fbae3c" stop-opacity="1"></stop><stop offset="85.55555555555554%" stop-color="#fbae3c" stop-opacity="1"></stop></linearGradient></defs><defs><linearGradient id="grad2_1" x1="0%" y1="0%" x2="56.3%" y2="100%"><stop offset="14.444444444444446%" stop-color="#e1685e" stop-opacity="1"></stop><stop offset="85.55555555555554%" stop-color="#fbae3c" stop-opacity="1"></stop></linearGradient></defs><defs><linearGradient id="grad2_2" x1="0%" y1="0%" x2="56.3%" y2="100%"><stop offset="14.444444444444446%" stop-color="#e1685e" stop-opacity="1"></stop><stop offset="85.55555555555554%" stop-color="#96446e" stop-opacity="1"></stop></linearGradient></defs><defs><linearGradient id="grad2_3" x1="0%" y1="0%" x2="56.3%" y2="100%"><stop offset="14.444444444444446%" stop-color="#3d3056" stop-opacity="1"></stop><stop offset="85.55555555555554%" stop-color="#96446e" stop-opacity="1"></stop></linearGradient></defs><defs><linearGradient id="grad2_4" x1="0%" y1="0%" x2="56.3%" y2="100%"><stop offset="14.444444444444446%" stop-color="#3d3056" stop-opacity="1"></stop><stop offset="85.55555555555554%" stop-color="#001220" stop-opacity="1"></stop></linearGradient></defs><g transform="translate(960, 0)"><path d="M0 486C-38.9 446.5 -77.9 407 -129.5 398.5C-181.1 390 -245.3 412.4 -285.7 393.2C-326.1 373.9 -342.6 313 -365.7 265.7C-388.7 218.4 -418.3 184.8 -439.4 142.8C-460.5 100.8 -473.3 50.4 -486 0L0 0Z" fill="#18223c"></path><path d="M0 388.8C-31.2 357.2 -62.3 325.6 -103.6 318.8C-144.8 312 -196.2 329.9 -228.5 314.5C-260.8 299.1 -274.1 250.4 -292.5 212.5C-311 174.7 -334.6 147.8 -351.5 114.2C-368.4 80.6 -378.6 40.3 -388.8 0L0 0Z" fill="#683a67"></path><path d="M0 291.6C-23.4 267.9 -46.7 244.2 -77.7 239.1C-108.6 234 -147.2 247.5 -171.4 235.9C-195.6 224.4 -205.6 187.8 -219.4 159.4C-233.2 131 -251 110.9 -263.6 85.7C-276.3 60.5 -284 30.2 -291.6 0L0 0Z" fill="#c0526a"></path><path d="M0 194.4C-15.6 178.6 -31.2 162.8 -51.8 159.4C-72.4 156 -98.1 165 -114.3 157.3C-130.4 149.6 -137.1 125.2 -146.3 106.3C-155.5 87.4 -167.3 73.9 -175.8 57.1C-184.2 40.3 -189.3 20.2 -194.4 0L0 0Z" fill="#f6884d"></path><path d="M0 97.2C-7.8 89.3 -15.6 81.4 -25.9 79.7C-36.2 78 -49.1 82.5 -57.1 78.6C-65.2 74.8 -68.5 62.6 -73.1 53.1C-77.7 43.7 -83.7 37 -87.9 28.6C-92.1 20.2 -94.7 10.1 -97.2 0L0 0Z" fill="#fbae3c"></path></g><g transform="translate(0, 540)"><path d="M0 -486C47.5 -469.6 95.1 -453.3 141.2 -434.6C187.4 -416 232.2 -395 263.9 -363.2C295.6 -331.5 314.2 -289 349.5 -253.9C384.8 -218.9 436.7 -191.3 462.2 -150.2C487.7 -109.1 486.9 -54.6 486 0L0 0Z" fill="#18223c"></path><path d="M0 -388.8C38 -375.7 76 -362.6 113 -347.7C149.9 -332.8 185.8 -316 211.1 -290.6C236.5 -265.2 251.4 -231.2 279.6 -203.1C307.8 -175.1 349.3 -153 369.8 -120.1C390.2 -87.3 389.5 -43.6 388.8 0L0 0Z" fill="#683a67"></path><path d="M0 -291.6C28.5 -281.8 57 -272 84.7 -260.8C112.4 -249.6 139.3 -237 158.3 -217.9C177.4 -198.9 188.5 -173.4 209.7 -152.4C230.9 -131.3 262 -114.8 277.3 -90.1C292.6 -65.5 292.1 -32.7 291.6 0L0 0Z" fill="#c0526a"></path><path d="M0 -194.4C19 -187.9 38 -181.3 56.5 -173.9C75 -166.4 92.9 -158 105.6 -145.3C118.3 -132.6 125.7 -115.6 139.8 -101.6C153.9 -87.5 174.7 -76.5 184.9 -60.1C195.1 -43.6 194.7 -21.8 194.4 0L0 0Z" fill="#f6884d"></path><path d="M0 -97.2C9.5 -93.9 19 -90.7 28.2 -86.9C37.5 -83.2 46.4 -79 52.8 -72.6C59.1 -66.3 62.8 -57.8 69.9 -50.8C77 -43.8 87.3 -38.3 92.4 -30C97.5 -21.8 97.4 -10.9 97.2 0L0 0Z" fill="#fbae3c"></path></g></svg>